# xmcd
#
# Track frame offsets:
#	150
#	9775
#	33639
#	50734
#	76887
#	111090
#	128822
#	174674
#	200006
#	216369
#	238059
#	251314
#	278047
#	315880
#	337007
#
# Disc length: 4887 seconds
#
# Revision: 1
# Processed by: cddbd v1.5.2PL0 Copyright (c) Steve Scherf et al.
# Submitted via: audiograbber 1.83.01
#
DISCID=cf13150f
DTITLE=Susan Tedeschi - Live From Austin Texas
DYEAR=2003
DGENRE=Blues
TTITLE0=You Can Make It
TTITLE1=The Feeling That Music Brings
TTITLE2=Alone
TTITLE3=Wait For Me
TTITLE4=Hampmotized
TTITLE5=Love's In Need Of Love Today
TTITLE6=Don't Think Twice, It's Alright
TTITLE7=Voodoo Woman
TTITLE8=In The Garden
TTITLE9=Gonna Move
TTITLE10=Wrapped In The Arms Of Another
TTITLE11=It Hurts So Bad
TTITLE12=Lost, Lover Blues
TTITLE13=I Fell In Love
TTITLE14=Angel From Montgomery
EXTD=
EXTT0=
EXTT1=
EXTT2=
EXTT3=
EXTT4=
EXTT5=
EXTT6=
EXTT7=
EXTT8=
EXTT9=
EXTT10=
EXTT11=
EXTT12=
EXTT13=
EXTT14=
PLAYORDER=
